<svg xmlns="http://www.w3.org/2000/svg" viewBox="0 0 512 512">
  <!-- Background -->
  <rect width="512" height="512" rx="96" fill="#1d4ed8"/>

  <!-- Document body -->
  <rect x="108" y="72" width="232" height="296" rx="18" fill="white"/>

  <!-- Document fold corner -->
  <path d="M284 72 L340 128 L284 128 Z" fill="#bfdbfe"/>
  <path d="M284 72 L340 128 H284 Z" fill="#93c5fd"/>

  <!-- Text lines -->
  <rect x="136" y="166" width="148" height="13" rx="6.5" fill="#bfdbfe"/>
  <rect x="136" y="196" width="160" height="13" rx="6.5" fill="#bfdbfe"/>
  <rect x="136" y="226" width="130" height="13" rx="6.5" fill="#bfdbfe"/>
  <rect x="136" y="256" width="155" height="13" rx="6.5" fill="#bfdbfe"/>
  <rect x="136" y="286" width="110" height="13" rx="6.5" fill="#bfdbfe"/>

  <!-- Pen/pencil -->
  <g transform="translate(270, 300) rotate(-35)">
    <rect x="-14" y="-80" width="28" height="100" rx="5" fill="#fbbf24"/>
    <polygon points="-14,20 14,20 0,46" fill="#f59e0b"/>
    <rect x="-14" y="-90" width="28" height="16" rx="3" fill="#d1d5db"/>
    <rect x="-10" y="-56" width="20" height="4" rx="2" fill="#fde68a"/>
  </g>

  <!-- Sparkles (AI feel) -->
  <g fill="#fbbf24">
    <!-- Top right sparkle -->
    <path d="M380 80 L385 95 L400 90 L385 100 L390 115 L380 102 L370 115 L375 100 L360 90 L375 95 Z" opacity="0.9"/>
    <!-- Bottom left sparkle -->
    <path d="M110 360 L114 372 L126 368 L114 376 L118 388 L110 378 L102 388 L106 376 L94 368 L106 372 Z" opacity="0.7"/>
    <!-- Small dot sparkle -->
    <circle cx="408" cy="155" r="6" opacity="0.6"/>
    <circle cx="88" cy="300" r="4" opacity="0.5"/>
  </g>
</svg>
